<?xml version="1.0" encoding="UTF-8"?>
<svg version="1.1" xmlns="http://www.w3.org/2000/svg" width="32" height="32">
<path d="M0 0 C1.15757813 -0.00257812 2.31515625 -0.00515625 3.5078125 -0.0078125 C4.72210938 -0.00007812 5.93640625 0.00765625 7.1875 0.015625 C8.40179687 0.00789062 9.61609375 0.00015625 10.8671875 -0.0078125 C12.60355469 -0.00394531 12.60355469 -0.00394531 14.375 0 C15.44105469 0.00225586 16.50710937 0.00451172 17.60546875 0.00683594 C20.1875 0.265625 20.1875 0.265625 22.1875 2.265625 C21.8575 3.585625 21.5275 4.905625 21.1875 6.265625 C11.9475 6.265625 2.7075 6.265625 -6.8125 6.265625 C-7.1425 4.945625 -7.4725 3.625625 -7.8125 2.265625 C-5.12762835 -0.41924665 -3.74773019 0.00793051 0 0 Z " fill="#E5E5E5" transform="translate(8.8125,2.734375)"/>
<path d="M0 0 C1.16781006 0.00523682 2.33562012 0.01047363 3.53881836 0.01586914 C4.79887695 0.0190918 6.05893555 0.02231445 7.35717773 0.02563477 C8.6976732 0.03399136 10.03816799 0.04245632 11.37866211 0.05102539 C12.72306153 0.05603879 14.06746271 0.06060197 15.41186523 0.06469727 C18.71334151 0.07653051 22.01473014 0.09301568 25.31616211 0.11352539 C25.87866211 2.05102539 25.87866211 2.05102539 26.31616211 4.11352539 C25.31616211 5.11352539 25.31616211 5.11352539 22.63232422 5.22705078 C21.46451416 5.22181396 20.2967041 5.21657715 19.09350586 5.21118164 C17.83344727 5.20795898 16.57338867 5.20473633 15.27514648 5.20141602 C13.93465102 5.19305942 12.59415623 5.18459446 11.25366211 5.17602539 C9.90926269 5.17101199 8.56486151 5.16644881 7.22045898 5.16235352 C3.9189827 5.15052027 0.61759408 5.1340351 -2.68383789 5.11352539 C-3.24633789 3.17602539 -3.24633789 3.17602539 -3.68383789 1.11352539 C-2.68383789 0.11352539 -2.68383789 0.11352539 0 0 Z " fill="#E4E4E4" transform="translate(4.683837890625,22.886474609375)"/>
<path d="M0 0 C5.94 0 11.88 0 18 0 C18.33 1.65 18.66 3.3 19 5 C17.12365741 6.87634259 14.459175 6.13246191 11.96679688 6.13671875 C10.77666992 6.13091797 10.77666992 6.13091797 9.5625 6.125 C8.77294922 6.12886719 7.98339844 6.13273437 7.16992188 6.13671875 C1.25326133 6.12663067 1.25326133 6.12663067 -1 5 C-0.67 3.35 -0.34 1.7 0 0 Z " fill="#E5E5E5" transform="translate(2,13)"/>
</svg>
