<svg width="104" height="19" viewBox="0 0 104 19" fill="none" xmlns="http://www.w3.org/2000/svg">
<path d="M14.0566 10.9081C13.8593 11.0993 13.7687 11.3758 13.8136 11.6469L14.4907 15.3941C14.5478 15.7117 14.4138 16.0331 14.148 16.2166C13.8875 16.407 13.541 16.4299 13.2569 16.2775L9.88372 14.5182C9.76644 14.4557 9.6362 14.4222 9.50292 14.4184H9.29652C9.22493 14.4291 9.15486 14.4519 9.09089 14.487L5.71696 16.2547C5.55017 16.3385 5.36129 16.3682 5.17622 16.3385C4.72534 16.2532 4.42451 15.8236 4.49838 15.3705L5.17622 11.6233C5.22115 11.3499 5.13052 11.0719 4.93326 10.8777L2.18309 8.21201C1.95309 7.98886 1.87312 7.65375 1.97822 7.35138C2.08027 7.04978 2.34075 6.82968 2.65529 6.78017L6.44049 6.23105C6.72838 6.20134 6.98123 6.02617 7.1107 5.76722L8.77863 2.34756C8.81823 2.2714 8.86926 2.20133 8.93095 2.14192L8.99949 2.08861C9.03529 2.04901 9.07642 2.01626 9.12211 1.9896L9.20513 1.95914L9.3346 1.90582H9.65524C9.94161 1.93553 10.1937 2.10689 10.3255 2.36279L12.0155 5.76722C12.1373 6.01627 12.3742 6.18916 12.6476 6.23105L16.4328 6.78017C16.7527 6.82587 17.02 7.04674 17.1259 7.35138C17.2256 7.65679 17.1396 7.9919 16.905 8.21201L14.0566 10.9081Z" fill="#F6B76F"/>
<path d="M35.3808 10.9091C35.1835 11.1003 35.0929 11.3767 35.1378 11.6479L35.8149 15.395C35.872 15.7126 35.738 16.034 35.4722 16.2176C35.2117 16.408 34.8652 16.4308 34.5811 16.2785L31.2079 14.5192C31.0907 14.4567 30.9604 14.4232 30.8271 14.4194H30.6207C30.5491 14.4301 30.4791 14.4529 30.4151 14.488L27.0412 16.2557C26.8744 16.3394 26.6855 16.3691 26.5004 16.3394C26.0496 16.2541 25.7487 15.8246 25.8226 15.3714L26.5004 11.6243C26.5454 11.3509 26.4547 11.0729 26.2575 10.8786L23.5073 8.21299C23.2773 7.98983 23.1973 7.65472 23.3024 7.35236C23.4045 7.05076 23.665 6.83065 23.9795 6.78115L27.7647 6.23202C28.0526 6.20232 28.3054 6.02715 28.4349 5.7682L30.1028 2.34854C30.1425 2.27238 30.1935 2.20231 30.2552 2.1429L30.3237 2.08959C30.3595 2.04998 30.4006 2.01723 30.4463 1.99058L30.5293 1.96011L30.6588 1.9068H30.9795C31.2658 1.9365 31.5179 2.10787 31.6497 2.36377L33.3397 5.7682C33.4615 6.01725 33.6984 6.19013 33.9718 6.23202L37.757 6.78115C38.0769 6.82685 38.3442 7.04771 38.4501 7.35236C38.5499 7.65777 38.4638 7.99288 38.2292 8.21299L35.3808 10.9091Z" fill="#F6B76F"/>
<g clip-path="url(#clip0_324_127)">
<path d="M58.124 11.0023C57.9267 11.1935 57.8361 11.4699 57.881 11.7411L58.5581 15.4882C58.6152 15.8058 58.4812 16.1272 58.2154 16.3108C57.9549 16.5012 57.6084 16.524 57.3243 16.3717L53.9511 14.6124C53.8338 14.5499 53.7036 14.5164 53.5703 14.5126H53.3639C53.2923 14.5233 53.2222 14.5461 53.1583 14.5812L49.7843 16.3489C49.6175 16.4326 49.4287 16.4623 49.2436 16.4326C48.7927 16.3473 48.4919 15.9178 48.5658 15.4646L49.2436 11.7175C49.2885 11.4441 49.1979 11.1661 49.0006 10.9718L46.2505 8.30619C46.0205 8.08303 45.9405 7.74792 46.0456 7.44556C46.1477 7.14396 46.4081 6.92385 46.7227 6.87435L50.5079 6.32522C50.7958 6.29552 51.0486 6.12035 51.1781 5.8614L52.846 2.44174C52.8856 2.36558 52.9366 2.29551 52.9983 2.2361L53.0669 2.18279C53.1027 2.14318 53.1438 2.11043 53.1895 2.08378L53.2725 2.05331L53.402 2H53.7226C54.009 2.0297 54.2611 2.20107 54.3928 2.45697L56.0829 5.8614C56.2047 6.11045 56.4416 6.28333 56.715 6.32522L60.5002 6.87435C60.8201 6.92005 61.0874 7.14091 61.1932 7.44556C61.293 7.75097 61.207 8.08608 60.9724 8.30619L58.124 11.0023Z" fill="#F6B76F"/>
</g>
<path d="M78.0303 10.9091C77.833 11.1003 77.7424 11.3767 77.7873 11.6479L78.4644 15.395C78.5215 15.7126 78.3875 16.034 78.1217 16.2176C77.8612 16.408 77.5147 16.4308 77.2306 16.2785L73.8574 14.5192C73.7401 14.4567 73.6099 14.4232 73.4766 14.4194H73.2702C73.1986 14.4301 73.1286 14.4529 73.0646 14.488L69.6907 16.2557C69.5239 16.3394 69.335 16.3691 69.1499 16.3394C68.699 16.2541 68.3982 15.8246 68.4721 15.3714L69.1499 11.6243C69.1948 11.3509 69.1042 11.0729 68.907 10.8786L66.1568 8.21299C65.9268 7.98983 65.8468 7.65472 65.9519 7.35236C66.054 7.05076 66.3144 6.83065 66.629 6.78115L70.4142 6.23202C70.7021 6.20232 70.9549 6.02715 71.0844 5.7682L72.7523 2.34854C72.7919 2.27238 72.843 2.20231 72.9046 2.1429L72.9732 2.08959C73.009 2.04998 73.0501 2.01723 73.0958 1.99058L73.1788 1.96011L73.3083 1.9068H73.6289C73.9153 1.9365 74.1674 2.10787 74.2992 2.36377L75.9892 5.7682C76.111 6.01725 76.3479 6.19013 76.6213 6.23202L80.4065 6.78115C80.7264 6.82685 80.9937 7.04771 81.0996 7.35236C81.1993 7.65777 81.1133 7.99288 80.8787 8.21299L78.0303 10.9091Z" fill="#F6B76F"/>
<path d="M99.3583 10.9091C99.1611 11.1003 99.0704 11.3767 99.1154 11.6479L99.7925 15.395C99.8496 15.7126 99.7155 16.034 99.4497 16.2176C99.1893 16.408 98.8427 16.4308 98.5586 16.2785L95.1855 14.5192C95.0682 14.4567 94.938 14.4232 94.8047 14.4194H94.5983C94.5267 14.4301 94.4566 14.4529 94.3926 14.488L91.0187 16.2557C90.8519 16.3394 90.663 16.3691 90.478 16.3394C90.0271 16.2541 89.7263 15.8246 89.8001 15.3714L90.478 11.6243C90.5229 11.3509 90.4323 11.0729 90.235 10.8786L87.4848 8.21299C87.2548 7.98983 87.1749 7.65472 87.28 7.35236C87.382 7.05076 87.6425 6.83065 87.957 6.78115L91.7422 6.23202C92.0301 6.20232 92.283 6.02715 92.4125 5.7682L94.0804 2.34854C94.12 2.27238 94.171 2.20231 94.2327 2.1429L94.3013 2.08959C94.337 2.04998 94.3782 2.01723 94.4239 1.99058L94.5069 1.96011L94.6364 1.9068H94.957C95.2434 1.9365 95.4955 2.10787 95.6272 2.36377L97.3172 5.7682C97.4391 6.01725 97.6759 6.19013 97.9494 6.23202L101.735 6.78115C102.054 6.82685 102.322 7.04771 102.428 7.35236C102.527 7.65777 102.441 7.99288 102.207 8.21299L99.3583 10.9091Z" fill="#F6B76F" fill-opacity="0.5"/>
<defs>
<clipPath id="clip0_324_127">
<rect width="18.2786" height="18.2788" fill="white" transform="translate(43.0586 0.00299072)"/>
</clipPath>
</defs>
</svg>
